HIERARCHY
ROOT Hips
{
	OFFSET 0.00000 0.00000 0.00000
	CHANNELS 6 Xposition Yposition Zposition Zrotation Yrotation Xrotation 
	JOINT LHipJoint
	{
		OFFSET 0 0 0
		CHANNELS 3 Zrotation Yrotation Xrotation
		JOINT LeftHip
		{
			OFFSET 1.28858 -1.83292 1.03970
			CHANNELS 3 Zrotation Yrotation Xrotation
			JOINT LeftKnee
			{
				OFFSET 2.47846 -6.80952 0.00000
				CHANNELS 3 Zrotation Yrotation Xrotation
				JOINT LeftAnkle
				{
					OFFSET 2.75274 -7.56311 0.00000
					CHANNELS 3 Zrotation Yrotation Xrotation
					JOINT LeftToe
					{
						OFFSET 0.12848 -0.35301 1.68223
						CHANNELS 3 Zrotation Yrotation Xrotation
						End Site
						{
							OFFSET 0.00000 -0.00000 0.87311
						}
					}
				}
			}
		}
	}
	JOINT RHipJoint
	{
		OFFSET 0 0 0
		CHANNELS 3 Zrotation Yrotation Xrotation
		JOINT RightHip
		{
			OFFSET -1.31183 -1.83292 1.03970
			CHANNELS 3 Zrotation Yrotation Xrotation
			JOINT RightKnee
			{
				OFFSET -2.44740 -6.72417 0.00000
				CHANNELS 3 Zrotation Yrotation Xrotation
				JOINT RightAnkle
				{
					OFFSET -2.67343 -7.34519 0.00000
					CHANNELS 3 Zrotation Yrotation Xrotation
					JOINT RightToe
					{
						OFFSET -0.16914 -0.46471 1.77626
						CHANNELS 3 Zrotation Yrotation Xrotation
						End Site
						{
							OFFSET -0.00000 -0.00000 0.92777
						}
					}
				}
			}
		}
	}
	JOINT lowerback
	{
		OFFSET 0 0 0
		CHANNELS 3 Zrotation Yrotation Xrotation
		JOINT Chest
		{
			OFFSET 0.01249 2.14252 0.03842
			CHANNELS 3 Zrotation Yrotation Xrotation
			JOINT Chest2
			{
				OFFSET -0.02957 2.14199 -0.03751
				CHANNELS 3 Zrotation Yrotation Xrotation
				JOINT lowerneck
				{
					OFFSET 0 0 0
					CHANNELS 3 Zrotation Yrotation Xrotation
					JOINT Neck
					{
						OFFSET -0.01678 1.65709 -0.05476
						CHANNELS 3 Zrotation Yrotation Xrotation
						JOINT Head
						{
							OFFSET 0.07912 1.58331 -0.11843
							CHANNELS 3 Zrotation Yrotation Xrotation
							End Site
							{
								OFFSET 0.03298 1.73940 -0.04271
							}
						}
					}
				}
				JOINT LeftCollar
				{
					OFFSET 0 0 0
					CHANNELS 3 Zrotation Yrotation Xrotation
					JOINT LeftShoulder
					{
						OFFSET 3.39556 1.16496 0.08673
CHANNELS 3 Zrotation Xrotation Yrotation
						JOINT LeftElbow
						{
OFFSET 0 -5.239100 -0.000000
CHANNELS 3 Zrotation Xrotation Yrotation
							JOINT LeftWrist
							{
OFFSET 0 -3.314670 0.000000
CHANNELS 3 Zrotation Xrotation Yrotation
								JOINT lhand
								{
									OFFSET 0 0 0
CHANNELS 3 Zrotation Xrotation Yrotation
									JOINT LFingers
									{
OFFSET 0 -0.965900 0.000000
CHANNELS 3 Zrotation Xrotation Yrotation
										End Site
										{
OFFSET 0 -0.778730 0.000000
										}
									}
								}
								JOINT LThumb
								{
OFFSET 0 0.000000 0.000000
CHANNELS 3 Zrotation Xrotation Yrotation
									End Site
									{
OFFSET 0 -0.790620 0.790620
									}
								}
							}
						}
					}
				}
				JOINT RightCollar
				{
					OFFSET 0 0 0
					CHANNELS 3 Zrotation Yrotation Xrotation
					JOINT RightShoulder
					{
						OFFSET -3.27193 1.31331 0.33940
CHANNELS 3 Zrotation Xrotation Yrotation
						JOINT RightElbow
						{
OFFSET 0 -5.302520 0.000000
CHANNELS 3 Zrotation Xrotation Yrotation
							JOINT RightWrist
							{
OFFSET 0 -3.678750 0.000000
CHANNELS 3 Zrotation Xrotation Yrotation
								JOINT rhand
								{
									OFFSET 0 0 0
CHANNELS 3 Zrotation Xrotation Yrotation
									JOINT RFingers
									{
OFFSET 0 -0.594810 0.000000
CHANNELS 3 Zrotation Xrotation Yrotation
										End Site
										{
OFFSET 0 -0.479550 0.000000
										}
									}
								}
								JOINT RThumb
								{
OFFSET 0 0.000000 0.000000
CHANNELS 3 Zrotation Xrotation Yrotation
									End Site
									{
OFFSET 0 -0.486870 0.486870
									}
								}
							}
						}
					}
				}
			}
		}
	}
}
MOTION
Frames: 4
Frame Time: 0.008333333333333333
4.219100 14.666351 16.136301 -0.050989 0.895166 -15.047972 0.000000 0.000000 0.000000 4.048951 14.402075 -16.329384 12.641301 18.648750 68.007603 -1.275545 -32.612932 -16.269064 0.821798 -5.784094 -16.159234 0.000000 0.000000 0.000000 -2.893374 -16.231127 -14.214230 -12.145193 -18.451347 66.448329 -2.275310 20.271114 -28.722030 -0.723998 5.435875 -15.156303 1.024149 0.625170 -2.585733 -1.290994 0.830925 1.405501 -1.859170 0.448014 2.927771 -3.592523 -2.620513 0.164247 6.267822 -3.974525 9.790793 2.596505 -1.899161 3.381606 0.000000 0.000000 0.000000 69.658727 -59.380566 6.480873 22.617844 -33.668248 6.925274 -21.171596 4.235283 18.675247 0.000000 0.000000 0.000000 -7.125000 0.000000 0.000000 -30.407734 11.501230 -28.159865 0.000000 0.000000 0.000000 -60.553599 -47.954334 -5.102764 -33.242151 -43.515363 -13.588516 10.698714 10.172210 22.966231 0.000000 0.000000 0.000000 7.125000 0.000000 0.000000 38.097550 48.932066 -4.266689
4.219101 14.666354 16.136303 -0.051068 0.895097 -15.047916 0.000000 0.000000 0.000000 4.049054 14.402125 -16.329452 12.641303 18.648751 68.007610 -1.275534 -32.612897 -16.269093 0.821795 -5.784083 -16.159201 0.000000 0.000000 0.000000 -2.893223 -16.231081 -14.214289 -12.145179 -18.451342 66.448286 -2.275331 20.270941 -28.722089 -0.724093 5.436225 -15.157309 1.024247 0.625211 -2.585800 -1.290982 0.830975 1.405503 -1.859209 0.448041 2.927814 -3.592670 -2.620538 0.164241 6.268065 -3.974576 9.790779 2.596614 -1.899184 3.381619 0.000000 0.000000 0.000000 69.658180 -59.380799 6.481419 22.617931 -33.668345 6.925322 -21.172187 4.236649 18.675442 0.000000 0.000000 0.000000 -7.125000 0.000000 0.000000 -30.408001 11.500991 -28.160395 0.000000 0.000000 0.000000 -60.553698 -47.954303 -5.102892 -33.242053 -43.515288 -13.588449 10.698542 10.172329 22.965994 0.000000 0.000000 0.000000 7.125000 0.000000 0.000000 38.097250 48.931899 -4.266468
4.219102 14.666356 16.136305 -0.051147 0.895028 -15.047861 0.000000 0.000000 0.000000 4.049157 14.402176 -16.329520 12.641305 18.648752 68.007617 -1.275523 -32.612862 -16.269121 0.821792 -5.784072 -16.159169 0.000000 0.000000 0.000000 -2.893071 -16.231034 -14.214349 -12.145166 -18.451336 66.448243 -2.275351 20.270768 -28.722148 -0.724188 5.436576 -15.158314 1.024345 0.625252 -2.585867 -1.290970 0.831025 1.405505 -1.859248 0.448068 2.927857 -3.592816 -2.620563 0.164235 6.268308 -3.974626 9.790766 2.596723 -1.899206 3.381631 0.000000 0.000000 0.000000 69.657633 -59.381032 6.481966 22.618018 -33.668441 6.925371 -21.172778 4.238015 18.675637 0.000000 0.000000 0.000000 -7.125000 0.000000 0.000000 -30.408268 11.500751 -28.160926 0.000000 0.000000 0.000000 -60.553797 -47.954272 -5.103021 -33.241955 -43.515213 -13.588381 10.698370 10.172448 22.965756 0.000000 0.000000 0.000000 7.125000 0.000000 0.000000 38.096950 48.931732 -4.266247
4.219102 14.666359 16.136307 -0.051225 0.894959 -15.047805 0.000000 0.000000 0.000000 4.049260 14.402226 -16.329588 12.641307 18.648753 68.007623 -1.275512 -32.612827 -16.269150 0.821788 -5.784060 -16.159136 0.000000 0.000000 0.000000 -2.892920 -16.230988 -14.214408 -12.145152 -18.451331 66.448200 -2.275371 20.270596 -28.722207 -0.724284 5.436926 -15.159320 1.024442 0.625293 -2.585934 -1.290958 0.831075 1.405507 -1.859287 0.448095 2.927900 -3.592962 -2.620588 0.164228 6.268551 -3.974676 9.790752 2.596833 -1.899229 3.381643 0.000000 0.000000 0.000000 69.657086 -59.381265 6.482512 22.618105 -33.668538 6.925419 -21.173370 4.239381 18.675832 0.000000 0.000000 0.000000 -7.125000 0.000000 0.000000 -30.408535 11.500512 -28.161456 0.000000 0.000000 0.000000 -60.553895 -47.954241 -5.103149 -33.241856 -43.515138 -13.588313 10.698198 10.172567 22.965519 0.000000 0.000000 0.000000 7.125000 0.000000 0.000000 38.096651 48.931565 -4.266025
